<svg preserveAspectRatio="xMidYMid meet" data-bbox="0 0 389.1 88.7" viewBox="0 0 389.1 88.7" xmlns="http://www.w3.org/2000/svg" data-type="color" role="presentation" aria-hidden="true" aria-label="" xmlns:c2pa="http://c2pa.org/manifest"><metadata><c2pa:manifest>AAAWgmp1bWIAAAAeanVtZGMycGEAEQAQgAAAqgA4m3EDYzJwYQAAABZcanVtYgAAAEdqdW1kYzJtYQARABCAAACqADibcQN1cm46YzJwYToyMzk4N2EwNy1lMDE1LTQxOWItOTgyMS05MGZhNDkyYWQyN2UAAAADl2p1bWIAAAApanVtZGMyYXMAEQAQgAAAqgA4m3EDYzJwYS5hc3NlcnRpb25zAAAAALxqdW1iAAAARGp1bWRjYm9yABEAEIAAAKoAOJtxE2MycGEuaW5ncmVkaWVudC52MwAAAAAYYzJzaCeRzoLnwYNOjJU65Ve3+l8AAABwY2JvcqNpZGM6Zm9ybWF0bWltYWdlL3N2Zyt4bWxqaW5zdGFuY2VJRHgseG1wOmlpZDo0MWQ2MmVjNC1jZmZmLTQ5NGEtODIyNC0wY2M5NzdmMzJmOGFscmVsYXRpb25zaGlwaHBhcmVudE9mAAAB4mp1bWIAAABBanVtZGNib3IAEQAQgAAAqgA4m3ETYzJwYS5hY3Rpb25zLnYyAAAAABhjMnNoD3UAZcX/z69bt/RmFT0xhgAAAZljYm9yomdhY3Rpb25zgqJmYWN0aW9ua2MycGEub3BlbmVkanBhcmFtZXRlcnOha2luZ3JlZGllbnRzgaJjdXJseC1zZWxmI2p1bWJmPWMycGEuYXNzZXJ0aW9ucy9jMnBhLmluZ3JlZGllbnQudjNkaGFzaFggNcd/zbGPXV2p/fStB5eONqadiMrzMmWFODllAzC4vIukZmFjdGlvbngdY29tLmFudGhyb3BpYy5jbGF1ZGUucHJvdmlkZWRqcGFyYW1ldGVyc6F4H2NvbS5hbnRocm9waWMub3JpZ2luLWNvbmZpZGVuY2VndW5rbm93bmtkZXNjcmlwdGlvbnhmQ2xhdWRlIHByb3ZpZGVkIHRoaXMgZmlsZSBhdCB0aGUgcmVxdWVzdCBvZiBhIHVzZXIgYW5kIG1heSBoYXZlIGNyZWF0ZWQgb3IgbW9kaWZpZWQgdGhlIGZpbGUgY29udGVudHMubXNvZnR3YXJlQWdlbnShZG5hbWVmQ2xhdWRlcmFsbEFjdGlvbnNJbmNsdWRlZPUAAADIanVtYgAAAEBqdW1kY2JvcgARABCAAACqADibcRNjMnBhLmhhc2guZGF0YQAAAAAYYzJzaBHmLnT+8fqYuPF0lUpFbKYAAACAY2JvcqVjYWxnZnNoYTI1NmNwYWRMAAAAAAAAAAAAAAAAZGhhc2hYIEpW4Wh0pJJjBKUry1bqJLpPGFJkjNmWvfG7I4QGkUBmZG5hbWVuanVtYmYgbWFuaWZlc3RqZXhjbHVzaW9uc4GiZXN0YXJ0GQEGZmxlbmd0aBkeBAAAAj5qdW1iAAAAJ2p1bWRjMmNsABEAEIAAAKoAOJtxA2MycGEuY2xhaW0udjIAAAACD2Nib3KlY2FsZ2ZzaGEyNTZpc2lnbmF0dXJleE1zZWxmI2p1bWJmPS9jMnBhL3VybjpjMnBhOjIzOTg3YTA3LWUwMTUtNDE5Yi05ODIxLTkwZmE0OTJhZDI3ZS9jMnBhLnNpZ25hdHVyZWppbnN0YW5jZUlEeCx4bXA6aWlkOjA4MGZmNjYzLTkwYzMtNDEyZS1iZDQ2LTlhOGJlMTViMzcwOHJjcmVhdGVkX2Fzc2VydGlvbnODomN1cmx4LXNlbGYjanVtYmY9YzJwYS5hc3NlcnRpb25zL2MycGEuaW5ncmVkaWVudC52M2RoYXNoWCA1x3/NsY9dXan99K0Hl442pp2IyvMyZYU4OWUDMLi8i6JjdXJseCpzZWxmI2p1bWJmPWMycGEuYXNzZXJ0aW9ucy9jMnBhLmFjdGlvbnMudjJkaGFzaFggIAARf1BSHvGWqb1YXcpU2MUgEJ/siltxd8nFMB/GOOWiY3VybHgpc2VsZiNqdW1iZj1jMnBhLmFzc2VydGlvbnMvYzJwYS5oYXNoLmRhdGFkaGFzaFggLxi3bDNpgTGOiRxkKBMKvsrhltWDt3IvsZhCoxc9ofF0Y2xhaW1fZ2VuZXJhdG9yX2luZm+jZG5hbWVvQW50aHJvcGljIEZpbGVzZ3ZlcnNpb25lMS4wLjBrc3BlY1ZlcnNpb25lMi40LjAAABA4anVtYgAAAChqdW1kYzJjcwARABCAAACqADibcQNjMnBhLnNpZ25hdHVyZQAAABAIY2JvctKEWQISogEmGCFZAgowggIGMIIBjaADAgECAhRA5aAK7sI50L64g/oGQgU9Z1UTADAKBggqhkjOPQQDAzBJMRcwFQYDVQQKEw5BbnRocm9waWMsIFBCQzEuMCwGA1UEAxMlQW50aHJvcGljIENvbnRlbnQgQ3JlZGVudGlhbHMgUm9vdCBDQTAeFw0yNjA4MDcxODQzNTZaFw0yODA4MDYxOTQzNTZaMEQxFzAVBgNVBAoTDkFudGhyb3BpYywgUEJDMSkwJwYDVQQDEyBBbnRocm9waWMgQ2xhdWRlIENvbnRlbnQgU2lnbmluZzBZMBMGByqGSM49AgEGCCqGSM49AwEHA0IABJh6CmvLUBgFFNU0vUKlOVtE6djd17L5SuwX0LemFisBM3dkd/3cyjxFA3Qo5S46fX0/ihY0VZ7mfb9KF703t5OjWDBWMA4GA1UdDwEB/wQEAwIHgDAVBgNVHSUEDjAMBgorBgEEAYPoXgIBMAwGA1UdEwEB/wQCMAAwHwYDVR0jBBgwFoAUzlHiBIFOZFsj+OPEz5o+nMHXXMIwCgYIKoZIzj0EAwMDZwAwZAIwMXMdFJ4BetLLVY7ORuE9noqbbAZOZn/aArXyTwFAZfKrPzxF2vPoJNf1+UCdg1XGAjBwX1zd9WGqYkqmL5SFqw1QySjr1zJfpJM9+1rdDwSPLMOPOjKuiXjoU/pUUeG9RwmhY3BhZFkNngAAAAAAAAAAAAAAAAAAAAAAAAAAAAAAAAAAAAAAAAAAAAAAAAAAAAAAAAAAAAAAAAAAAAAAAAAAAAAAAAAAAAAAAAAAAAAAAAAAAAAAAAAAAAAAAAAAAAAAAAAAAAAAAAAAAAAAAAAAAAAAAAAAAAAAAAAAAAAAAAAAAAAAAAAAAAAAAAAAAAAAAAAAAAAAAAAAAAAAAAAAAAAAAAAAAAAAAAAAAAAAAAAAAAAAAAAAAAAAAAAAAAAAAAAAAAAAAAAAAAAAAAAAAAAAAAAAAAAAAAAAAAAAAAAAAAAAAAAAAAAAAAAAAAAAAAAAAAAAAAAAAAAAAAAAAAAAAAAAAAAAAAAAAAAAAAAAAAAAAAAAAAAAAAAAAAAAAAAAAAAAAAAAAAAAAAAAAAAAAAAAAAAAAAAAAAAAAAAAAAAAAAAAAAAAAAAAAAAAAAAAAAAAAAAAAAAAAAAAAAAAAAAAAAAAAAAAAAAAAAAAAAAAAAAAAAAAAAAAAAAAAAAAAAAAAAAAAAAAAAAAAAAAAAAAAAAAAAAAAAAAAAAAAAAAAAAAAAAAAAAAAAAAAAAAAAAAAAAAAAAAAAAAAAAAAAAAAAAAAAAAAAAAAAAAAAAAAAAAAAAAAAAAAAAAAAAAAAAAAAAAAAAAAAAAAAAAAAAAAAAAAAAAAAAAAAAAAAAAAAAAAAAAAAAAAAAAAAAAAAAAAAAAAAAAAAAAAAAAAAAAAAAAAAAAAAAAAAAAAAAAAAAAAAAAAAAAAAAAAAAAAAAAAAAAAAAAAAAAAAAAAAAAAAAAAAAAAAAAAAAAAAAAAAAAAAAAAAAAAAAAAAAAAAAAAAAAAAAAAAAAAAAAAAAAAAAAAAAAAAAAAAAAAAAAAAAAAAAAAAAAAAAAAAAAAAAAAAAAAAAAAAAAAAAAAAAAAAAAAAAAAAAAAAAAAAAAAAAAAAAAAAAAAAAAAAAAAAAAAAAAAAAAAAAAAAAAAAAAAAAAAAAAAAAAAAAAAAAAAAAAAAAAAAAAAAAAAAAAAAAAAAAAAAAAAAAAAAAAAAAAAAAAAAAAAAAAAAAAAAAAAAAAAAAAAAAAAAAAAAAAAAAAAAAAAAAAAAAAAAAAAAAAAAAAAAAAAAAAAAAAAAAAAAAAAAAAAAAAAAAAAAAAAAAAAAAAAAAAAAAAAAAAAAAAAAAAAAAAAAAAAAAAAAAAAAAAAAAAAAAAAAAAAAAAAAAAAAAAAAAAAAAAAAAAAAAAAAAAAAAAAAAAAAAAAAAAAAAAAAAAAAAAAAAAAAAAAAAAAAAAAAAAAAAAAAAAAAAAAAAAAAAAAAAAAAAAAAAAAAAAAAAAAAAAAAAAAAAAAAAAAAAAAAAAAAAAAAAAAAAAAAAAAAAAAAAAAAAAAAAAAAAAAAAAAAAAAAAAAAAAAAAAAAAAAAAAAAAAAAAAAAAAAAAAAAAAAAAAAAAAAAAAAAAAAAAAAAAAAAAAAAAAAAAAAAAAAAAAAAAAAAAAAAAAAAAAAAAAAAAAAAAAAAAAAAAAAAAAAAAAAAAAAAAAAAAAAAAAAAAAAAAAAAAAAAAAAAAAAAAAAAAAAAAAAAAAAAAAAAAAAAAAAAAAAAAAAAAAAAAAAAAAAAAAAAAAAAAAAAAAAAAAAAAAAAAAAAAAAAAAAAAAAAAAAAAAAAAAAAAAAAAAAAAAAAAAAAAAAAAAAAAAAAAAAAAAAAAAAAAAAAAAAAAAAAAAAAAAAAAAAAAAAAAAAAAAAAAAAAAAAAAAAAAAAAAAAAAAAAAAAAAAAAAAAAAAAAAAAAAAAAAAAAAAAAAAAAAAAAAAAAAAAAAAAAAAAAAAAAAAAAAAAAAAAAAAAAAAAAAAAAAAAAAAAAAAAAAAAAAAAAAAAAAAAAAAAAAAAAAAAAAAAAAAAAAAAAAAAAAAAAAAAAAAAAAAAAAAAAAAAAAAAAAAAAAAAAAAAAAAAAAAAAAAAAAAAAAAAAAAAAAAAAAAAAAAAAAAAAAAAAAAAAAAAAAAAAAAAAAAAAAAAAAAAAAAAAAAAAAAAAAAAAAAAAAAAAAAAAAAAAAAAAAAAAAAAAAAAAAAAAAAAAAAAAAAAAAAAAAAAAAAAAAAAAAAAAAAAAAAAAAAAAAAAAAAAAAAAAAAAAAAAAAAAAAAAAAAAAAAAAAAAAAAAAAAAAAAAAAAAAAAAAAAAAAAAAAAAAAAAAAAAAAAAAAAAAAAAAAAAAAAAAAAAAAAAAAAAAAAAAAAAAAAAAAAAAAAAAAAAAAAAAAAAAAAAAAAAAAAAAAAAAAAAAAAAAAAAAAAAAAAAAAAAAAAAAAAAAAAAAAAAAAAAAAAAAAAAAAAAAAAAAAAAAAAAAAAAAAAAAAAAAAAAAAAAAAAAAAAAAAAAAAAAAAAAAAAAAAAAAAAAAAAAAAAAAAAAAAAAAAAAAAAAAAAAAAAAAAAAAAAAAAAAAAAAAAAAAAAAAAAAAAAAAAAAAAAAAAAAAAAAAAAAAAAAAAAAAAAAAAAAAAAAAAAAAAAAAAAAAAAAAAAAAAAAAAAAAAAAAAAAAAAAAAAAAAAAAAAAAAAAAAAAAAAAAAAAAAAAAAAAAAAAAAAAAAAAAAAAAAAAAAAAAAAAAAAAAAAAAAAAAAAAAAAAAAAAAAAAAAAAAAAAAAAAAAAAAAAAAAAAAAAAAAAAAAAAAAAAAAAAAAAAAAAAAAAAAAAAAAAAAAAAAAAAAAAAAAAAAAAAAAAAAAAAAAAAAAAAAAAAAAAAAAAAAAAAAAAAAAAAAAAAAAAAAAAAAAAAAAAAAAAAAAAAAAAAAAAAAAAAAAAAAAAAAAAAAAAAAAAAAAAAAAAAAAAAAAAAAAAAAAAAAAAAAAAAAAAAAAAAAAAAAAAAAAAAAAAAAAAAAAAAAAAAAAAAAAAAAAAAAAAAAAAAAAAAAAAAAAAAAAAAAAAAAAAAAAAAAAAAAAAAAAAAAAAAAAAAAAAAAAAAAAAAAAAAAAAAAAAAAAAAAAAAAAAAAAAAAAAAAAAAAAAAAAAAAAAAAAAAAAAAAAAAAAAAAAAAAAAAAAAAAAAAAAAAAAAAAAAAAAAAAAAAAAAAAAAAAAAAAAAAAAAAAAAAAAAAAAAAAAAAAAAAAAAAAAAAAAAAAAAAAAAAAAAAAAAAAAAAAAAAAAAAAAAAAAAAAAAAAAAAAAAAAAAAAAAAAAAAAAAAAAAAAAAAAAAAAAAAAAAAAAAAAAAAAAAAAAAAAAAAAAAAAAAAAAAAAAAAAAAAAAAAAAAAAAAAAAAAAAAAAAAAAAAAAAAAAAAAAAAAAAAAAAAAAAAAAAAAAAAAAAAAAAAAAAAAAAAAAAAAAAAAAAAAAAAAAAAAAAAAAAAAAAAAAAAAAAAAAAAAAAAAAAAAAAAAAAAAAAAAAAAAAAAAAAAAAAAAAAAAAAAAAAAAAAAAAAAAAAAAAAAAAAAAAAAAAAAAAAAAAAAAAAAAAAAAAAAAAAAAAAAAAAAAAAAAAAAAAAAAAAAAAAAAAAAAAAAAAAAAAAAAAAAAAAAAAAAAAAAAAAAAAAAAAAAAAAAAAAAAAAAAAAAAAAAAAAAAAAAAAAAAAAAAAAAAAAAAAAAAAAAAAAAAAAAAAAAAAAAAAAAAAAAAAAAAAAAAAAAAAAAAAAAAAAAAAAAAAAAAAAAAAAAAAAAAAAAAAAAAAAAAAAAAAAAAAAAAAAAAAAAAAAAAAAAAAAAAAAAAAAAAAAAAAAAAAAAAAAAAAAAAAAAAAAAAAAAAAAAAAAAAAAAAAAAAAAAAAAAAAAAAAAAAAAAAAAAAAAAAAAAAAAAAAAAAAAAAAAAAAAAAAAAAAAAAAAAAAAAAAAAAAAAAAAAAAAAAAAAAAAAAAAAAAAAAAAAAAAAAAAAAAAAAAAAAAAAAAAAAAAAAAAAAAAAAAAAAAAAAAAAAAAAAAAAAAAAAAAAAAAAAAAAAAAAAAAAAAAAAAAAAAAAAAAAAAAAAAAAAAAAAAAAAAAAAAAAAAAAAAAAAAAAAAAAAAAAAAAAAAAAAAAAAAAAAAAAAAAAAAAAAAAAAAAAAAAAAAAAAAAAAAAAAAAAAAAAAAAAAAAAAAAAAAAAAAAAAAAAAAAAAAAAAAAAAAAAAAAAAAAAAAAAAAAAAAAAAAAAAAAAAAAAAAAAAAAAAAAAAAAAAAAAAAAAAAAAAAAAAAAAAAAAAAAAAAAAAAAAAAAAAAAAAAAAAAAAAAAAAAAAAAAAAAAAAAAAAAAAAAAAAAAAAAAAAAAAAAAAAAAAAAAAAAAAAAAAAAAAAAAAAAAAAAAAAAAAAAAAAAAAAAAAAAAAAAAAAAAAAAAAAAAAAAAAAAAAAAAAAAAAAAAAAAAAAAAAAAAAAAAAAAAAAAAAAAAAAAAAAAAAAAAAAAAAAAAAAAAAAAAAAAAAAAAAAAAAAAAAAAAAAAAAAAAAAAAAAAAAAAAAAAAAAAAAAAAAAAAAAAAAAAAAAAAAAAAAAAAAAAAAAAAAAAAAAAAAAAAAAAAAAAAAAAAAAAAAAAAAAAAAAAAAAAAAAAAAAAAAAAAAAAAAAAAAAAAAAAAAAAAAAAAAAAAAAAAAAAAAAAAAAAAAAAAAAAAAAAAAAAAAAAAAAAAAAAAAAAAAAAAAAAAAAAAAAAAAAAAAAAAAAAAAAAAAAAAAAAAAAAAAAAAAAAAAAAAAAPZYQEeHxt0BiIxA/0wyy6erGR+cX+5oNKydcSgH1jVW2ZOo3XlZWlIqNrPhidD/SIcZSrxIc6iExYy/GJnnVRkDHvA=</c2pa:manifest></metadata>
    <g>
        <path fill="#ffffff" d="m308.1 3.7-18 37.4-17.8-37.4z" data-color="1"></path>
        <path fill="#ffffff" d="m325.4 21.7-11.7 23.6h23.6z" data-color="1"></path>
        <path fill="#ffffff" d="m325.5 16 6.1-12.3h-12.3z" data-color="1"></path>
        <path d="M343.4 32c-4.2-1.2-7.9-3.5-8.1-7.7s3-8 7.2-8.4c4.9-.5 8.9 3.3 8.9 8h9.5V51s.7-13.8-17.6-19.1" fill="#ffffff" data-color="1"></path>
        <path d="M343.4 4.1c7.7 0 14.4 4.4 17.7 10.8V9.8c0-3.2-2.6-5.8-5.8-5.8h-11.9Z" fill="#ffffff" data-color="1"></path>
        <path fill="#ffffff" d="M0 0v67.9h14.1V39.4H44V27.6H14.1V11.9h34.1V0z" data-color="1"></path>
        <path d="M81 37.7c-.2-3.5-1.3-6.1-3.2-7.9s-4.2-2.7-7-2.7-5.4 1-7.1 2.9-2.7 4.5-3.2 7.8h20.4Zm13 15.5c-.3 3-1.9 6-4.7 9.1-4.3 4.9-10.3 7.3-18.1 7.3s-12-2.1-16.9-6.2S47 52.6 47 43.3s2.2-15.4 6.6-20 10.1-7 17.2-7 7.9.8 11.3 2.4 6.1 4 8.3 7.4c2 3 3.2 6.4 3.8 10.4.3 2.3.5 5.6.4 10H60.2c.2 5 1.8 8.6 4.8 10.6 1.8 1.3 4 1.9 6.6 1.9s4.9-.8 6.6-2.3c.9-.8 1.7-2 2.4-3.5z" fill="#ffffff" data-color="1"></path>
        <path fill="#ffffff" d="M92.9 17.6h14.8l10.5 37.1 10.7-37.1H143l-18.1 50.3H111z" data-color="1"></path>
        <path d="M174.8 37.7c-.2-3.5-1.3-6.1-3.2-7.9s-4.2-2.7-7-2.7-5.4 1-7.1 2.9-2.7 4.5-3.2 7.8h20.4Zm13 15.5c-.3 3-1.9 6-4.7 9.1-4.3 4.9-10.3 7.3-18.1 7.3s-12-2.1-16.9-6.2-7.3-10.8-7.3-20.1 2.2-15.4 6.6-20 10.1-7 17.2-7 7.9.8 11.3 2.4 6.1 4 8.3 7.4c2 3 3.2 6.4 3.8 10.4.3 2.3.5 5.6.4 10H154c.2 5 1.8 8.6 4.8 10.6 1.8 1.3 4 1.9 6.6 1.9s4.9-.8 6.6-2.3c.9-.8 1.7-2 2.4-3.5z" fill="#ffffff" data-color="1"></path>
        <path d="M215.3 27.4c-4.5 0-7.5 1.9-9.2 5.7-.9 2-1.3 4.6-1.3 7.7V68h-13.1V17.7h12.7V25c1.7-2.6 3.3-4.4 4.8-5.6 2.7-2 6.1-3 10.3-3s9.5 1.4 12.8 4.1 5 7.2 5 13.5v33.9h-13.5V37.3c0-2.6-.4-4.7-1.1-6.1-1.3-2.6-3.8-3.9-7.4-3.9" fill="#ffffff" data-color="1"></path>
        <path d="M266.7 58.6v9.8l-6.2.2c-6.2.2-10.5-.9-12.7-3.2-1.5-1.5-2.2-3.8-2.2-7v-31h-7V18h7V4.1h13v14h8.2v9.4h-8.2v26.6c0 2.1.3 3.3.8 3.9.5.5 2.1.8 4.8.8h2.6" fill="#ffffff" data-color="1"></path>
        <path d="M370 58.2c-.6.5-1 1.3-1 2.3s.5 2.3 1.5 2.8c.6.3 1.5.5 2.8.5v4.4c-2 0-3.6-.4-4.8-1.1-2.3-1.2-3.5-3.4-3.5-6.5s.7-4.4 2-5.8c1.4-1.4 3.2-2.2 5.4-2.2s3.2.5 4.6 1.5q1.35 1.05 3 3.3l1.3 1.8c.8 1.1 1.4 1.9 1.8 2.3s.8.8 1.3 1.1V52.5h4v15.9c-1.7 0-3.2-.4-4.6-1.1-1.5-.6-3.2-2.2-4.9-4.6-1.5-2.1-2.6-3.5-3.2-4.1-1-.9-2.1-1.4-3.3-1.4s-1.8.3-2.4.8" fill="#ffffff" data-color="1"></path>
        <path d="M383.2 41.7c-1.4-.4-3.4-.6-6.1-.6s-4.9.2-6.2.6-2 1.3-2 2.7.7 2.2 2 2.7c1.3.4 3.4.7 6.2.7s4.7-.2 6.1-.7q2.1-.6 2.1-2.7c0-2.1-.7-2.2-2.1-2.7m5.8 2.6c0 2.9-1 5-3.1 6.2s-5 1.8-8.8 1.8-6.8-.6-8.8-1.8c-2.1-1.2-3.1-3.3-3.1-6.2s1-5 3.1-6.2 5-1.8 8.8-1.8 6.8.6 8.8 1.8c2.1 1.2 3.1 3.3 3.1 6.2" fill="#ffffff" data-color="1"></path>
        <path d="M370 25.7c-.6.5-1 1.3-1 2.3s.5 2.3 1.5 2.8c.6.3 1.5.5 2.8.5v4.4c-2 0-3.6-.4-4.8-1.1-2.3-1.2-3.5-3.4-3.5-6.5s.7-4.4 2-5.8c1.4-1.4 3.2-2.2 5.4-2.2s3.2.5 4.6 1.5q1.35 1.05 3 3.3l1.3 1.8c.8 1.1 1.4 1.9 1.8 2.3s.8.8 1.3 1.1V20h4v15.9c-1.7 0-3.2-.4-4.6-1.1-1.5-.6-3.2-2.2-4.9-4.6-1.5-2.1-2.6-3.5-3.2-4.1-1-.9-2.1-1.4-3.3-1.4s-1.8.3-2.4.8" fill="#ffffff" data-color="1"></path>
        <path d="M373 7.4c1.6.9 3.2 1.7 5 2.4q2.7.9 5.4 1.5 2.7.45 5.1.6V17c-3.5-.3-6.9-1.1-10.1-2.5s-6.2-3.2-8.9-5.4v11.1h-4.4V4.1h4.1q1.65 1.8 3.9 3.3Z" fill="#ffffff" data-color="1"></path>
        <path fill="#ffffff" d="m349.1 68.8-8.9-17.6h-29.6l-3.1 6.3V27.2l-17.4 36-18-36.1v41.7z" data-color="1"></path>
        <path d="M3 88.4H0V75.9h9.4v2.3H3zm-.3-6.8h6v2.3h-6z" fill="#ffffff" data-color="1"></path>
        <path d="M14.3 86.1h6.8v2.3h-9.7V75.9h9.4v2.3h-6.6v7.9Zm-.2-5.1h6v2.3h-6z" fill="#ffffff" data-color="1"></path>
        <path d="M23.5 88.4V75.9h5.4c1.1 0 2.1.2 2.9.5.8.4 1.4.9 1.9 1.6.4.7.7 1.5.7 2.4s-.2 1.7-.7 2.4c-.4.7-1.1 1.2-1.9 1.5-.8.4-1.8.5-2.9.5h-3.8l1.3-1.3v4.7h-2.9Zm2.9-4.4-1.3-1.4h3.7c.9 0 1.5-.2 2-.6s.7-.9.7-1.6-.2-1.2-.7-1.6-1.1-.6-2-.6h-3.7l1.3-1.4v7.1Zm5 4.4-3.1-4.5h3.1l3.1 4.5z" fill="#ffffff" data-color="1"></path>
        <path d="M36.6 88.4V75.9h2.9v12.5z" fill="#ffffff" data-color="1"></path>
        <path d="m40.8 88.4 5.6-12.5h2.9l5.6 12.5h-3l-4.6-11h1.2l-4.6 11h-3Zm2.8-2.6.7-2.2h6.5l.7 2.2z" fill="#ffffff" data-color="1"></path>
        <path d="M61.2 88.4V75.9h2.9v12.5z" fill="#ffffff" data-color="1"></path>
        <path d="M67 88.4V75.9h2.4l7.4 9h-1.2v-9h2.9v12.5h-2.4l-7.4-9h1.2v9z" fill="#ffffff" data-color="1"></path>
        <path d="M84.1 88.4V78.3h-4v-2.4H91v2.4h-4v10.1z" fill="#ffffff" data-color="1"></path>
        <path d="M95.4 86.1h6.8v2.3h-9.7V75.9h9.4v2.3h-6.6v7.9Zm-.2-5.1h6v2.3h-6z" fill="#ffffff" data-color="1"></path>
        <path d="M104.5 88.4V75.9h5.4c1.1 0 2.1.2 2.9.5.8.4 1.4.9 1.9 1.6s.7 1.5.7 2.4-.2 1.7-.7 2.4c-.4.7-1.1 1.2-1.9 1.5-.8.4-1.8.5-2.9.5h-3.8l1.3-1.3v4.7h-2.9Zm2.9-4.4-1.3-1.4h3.7c.9 0 1.5-.2 2-.6s.7-.9.7-1.6-.2-1.2-.7-1.6-1.1-.6-2-.6h-3.7l1.3-1.4v7.1Zm5.1 4.4-3.1-4.5h3.1l3.1 4.5z" fill="#ffffff" data-color="1"></path>
        <path d="M117.6 88.4V75.9h2.4l7.4 9h-1.2v-9h2.9v12.5h-2.4l-7.4-9h1.2v9z" fill="#ffffff" data-color="1"></path>
        <path d="m130.4 88.4 5.6-12.5h2.9l5.6 12.5h-3l-4.6-11h1.2l-4.6 11h-3Zm2.8-2.6.7-2.2h6.5l.7 2.2z" fill="#ffffff" data-color="1"></path>
        <path d="M151.5 88.7c-1 0-1.9-.2-2.7-.5s-1.5-.8-2.2-1.3c-.6-.6-1.1-1.3-1.4-2.1s-.5-1.6-.5-2.6.2-1.8.5-2.6.8-1.5 1.4-2.1 1.3-1 2.2-1.3c.8-.3 1.7-.5 2.7-.5s2.1.2 2.9.6c.9.4 1.6.9 2.2 1.7l-1.9 1.7c-.4-.5-.9-.9-1.4-1.1-.5-.3-1.1-.4-1.7-.4s-1.1.1-1.6.3-.9.5-1.3.8c-.4.4-.6.8-.8 1.3s-.3 1-.3 1.6.1 1.1.3 1.6.5.9.8 1.3.8.6 1.3.8 1 .3 1.6.3 1.2-.1 1.7-.4 1-.6 1.4-1.1l1.9 1.7c-.6.7-1.3 1.3-2.2 1.7q-1.35.6-3 .6Z" fill="#ffffff" data-color="1"></path>
        <path d="M158.6 88.4V75.9h2.9v12.5z" fill="#ffffff" data-color="1"></path>
        <path d="M170.6 88.7c-1 0-1.9-.2-2.7-.5s-1.6-.8-2.2-1.4-1.1-1.3-1.4-2.1-.5-1.6-.5-2.6.2-1.8.5-2.6.8-1.5 1.4-2c.6-.6 1.3-1 2.2-1.4s1.7-.5 2.7-.5 1.9.2 2.7.5 1.6.8 2.2 1.3c.6.6 1.1 1.3 1.4 2.1s.5 1.6.5 2.6-.2 1.8-.5 2.6-.8 1.5-1.4 2.1-1.3 1-2.2 1.3c-.8.3-1.7.5-2.7.5Zm0-2.5q.9 0 1.5-.3c.6-.3.9-.5 1.2-.8.4-.4.6-.8.8-1.3s.3-1 .3-1.6-.1-1.1-.3-1.6-.5-.9-.8-1.3c-.4-.4-.8-.6-1.2-.8q-.75-.3-1.5-.3c-.75 0-1.1.1-1.6.3s-.9.5-1.2.8-.6.8-.8 1.3-.3 1-.3 1.6.1 1.1.3 1.6.5.9.8 1.3c.4.4.8.6 1.2.8.5.2 1 .3 1.6.3" fill="#ffffff" data-color="1"></path>
        <path d="M179.6 88.4V75.9h2.4l7.4 9h-1.2v-9h2.9v12.5h-2.4l-7.4-9h1.2v9z" fill="#ffffff" data-color="1"></path>
        <path d="m192.4 88.4 5.6-12.5h2.9l5.6 12.5h-3l-4.6-11h1.2l-4.6 11h-3Zm2.8-2.6.7-2.2h6.5l.7 2.2z" fill="#ffffff" data-color="1"></path>
        <path d="M207.7 88.4V75.9h2.9V86h6.2v2.4z" fill="#ffffff" data-color="1"></path>
        <path d="m227.3 88.4-5.4-12.5h3.1l4.7 11.1h-1.8l4.8-11.1h2.9l-5.4 12.5z" fill="#ffffff" data-color="1"></path>
        <path d="M239.5 86.1h6.8v2.3h-9.7V75.9h9.4v2.3h-6.6v7.9Zm-.2-5.1h6v2.3h-6z" fill="#ffffff" data-color="1"></path>
        <path d="M248.6 88.4V75.9h2.4l7.4 9h-1.2v-9h2.9v12.5h-2.4l-7.4-9h1.2v9z" fill="#ffffff" data-color="1"></path>
        <path d="M265.6 88.4V78.3h-4v-2.4h10.9v2.4h-4v10.1z" fill="#ffffff" data-color="1"></path>
        <path d="m271.8 88.4 5.6-12.5h2.9l5.6 12.5h-3l-4.6-11h1.2l-4.6 11h-3Zm2.8-2.6.7-2.2h6.5l.7 2.2z" fill="#ffffff" data-color="1"></path>
        <path d="M287.1 88.4V75.9h2.4l7.4 9h-1.2v-9h2.9v12.5h-2.4l-7.4-9h1.2v9z" fill="#ffffff" data-color="1"></path>
        <path d="m299.9 88.4 5.6-12.5h2.9l5.6 12.5h-3l-4.6-11h1.2l-4.6 11h-3Zm2.8-2.6.7-2.2h6.5l.7 2.2z" fill="#ffffff" data-color="1"></path>
        <path d="M319.3 88.7c-1 0-2-.1-2.9-.4s-1.7-.6-2.2-1l1-2.2c.5.4 1.2.7 1.9.9s1.5.4 2.2.4 1 0 1.4-.2c.4-.1.6-.3.8-.5s.3-.4.3-.7-.1-.6-.4-.8-.6-.4-1-.5-.9-.2-1.4-.4c-.5-.1-1-.3-1.5-.4-.5-.2-1-.4-1.4-.6-.4-.3-.8-.6-1-1.1-.3-.4-.4-1-.4-1.6s.2-1.4.6-2 1-1.1 1.7-1.4c.8-.4 1.8-.5 2.9-.5s1.6 0 2.3.3c.8.2 1.4.5 2 .8l-.9 2.2c-.6-.3-1.1-.6-1.7-.7-.6-.2-1.2-.2-1.7-.2s-1 0-1.4.2c-.4.1-.6.3-.8.5s-.2.4-.2.7.1.6.4.8.6.4 1 .5.9.2 1.4.4c.5.1 1 .3 1.6.4.5.2 1 .4 1.4.6.4.3.8.6 1 1.1.3.4.4 1 .4 1.6s-.2 1.3-.6 1.9-1 1.1-1.8 1.4c-.8.4-1.8.5-2.9.5Z" fill="#ffffff" data-color="1"></path>
        <path d="M334.8 88.4v-5.1l.7 1.7-5.5-9.1h3.1l4.2 7h-1.8l4.2-7h2.8L337 85l.7-1.7v5.1z" fill="#ffffff" data-color="1"></path>
        <path d="M348.8 88.4V75.9h2.4l5.3 8.8h-1.3l5.2-8.8h2.4v12.5h-2.7v-8.3h.5l-4.2 7h-1.3l-4.3-7h.6v8.3h-2.7Z" fill="#ffffff" data-color="1"></path>
        <path d="m364.2 88.4 5.6-12.5h2.9l5.6 12.5h-3l-4.6-11h1.2l-4.6 11h-3Zm2.8-2.6.7-2.2h6.5l.7 2.2zm2.6-10.9 2.4-2.6h3l-3.2 2.6z" fill="#ffffff" data-color="1"></path>
        <path d="M383.7 88.7c-1 0-2-.1-2.9-.4s-1.7-.6-2.2-1l1-2.2c.5.4 1.2.7 1.9.9s1.5.4 2.2.4 1 0 1.4-.2c.4-.1.6-.3.8-.5s.3-.4.3-.7-.1-.6-.4-.8-.6-.4-1-.5-.9-.2-1.4-.4c-.5-.1-1-.3-1.5-.4-.5-.2-1-.4-1.4-.6-.4-.3-.8-.6-1-1.1-.3-.4-.4-1-.4-1.6s.2-1.4.6-2 1-1.1 1.7-1.4c.8-.4 1.8-.5 2.9-.5s1.6 0 2.3.3c.8.2 1.4.5 2 .8l-.9 2.2c-.6-.3-1.1-.6-1.7-.7-.6-.2-1.2-.2-1.7-.2s-1 0-1.4.2c-.3.1-.6.3-.8.5s-.2.5-.2.7.1.6.4.8.6.4 1 .5.9.2 1.4.3 1 .3 1.6.4 1 .4 1.4.6c.4.3.8.6 1 1 .3.4.4 1 .4 1.6s-.2 1.3-.6 1.9-1 1.1-1.8 1.4c-.8.4-1.8.5-2.9.5Z" fill="#ffffff" data-color="1"></path>
    </g>
</svg>
